<?xml version="1.0" standalone="no"?>
<!DOCTYPE svg PUBLIC "-//W3C//DTD SVG 20010904//EN"
 "http://www.w3.org/TR/2001/REC-SVG-20010904/DTD/svg10.dtd">
<svg version="1.0" xmlns="http://www.w3.org/2000/svg"
 width="1000.000000pt" height="343.000000pt" viewBox="0 0 1000.000000 343.000000"
 preserveAspectRatio="xMidYMid meet">
<metadata>
Created by potrace 1.16, written by Peter Selinger 2001-2019
</metadata>
<g transform="translate(0.000000,343.000000) scale(0.100000,-0.100000)"
fill="#000000" stroke="none">
<path d="M7238 2954 c-103 -55 -132 -345 -173 -1694 -8 -263 -24 -503 -34
-513 -19 -19 -62 377 -86 797 -16 285 -27 367 -50 402 -45 70 -93 -20 -134
-256 -25 -140 -56 -240 -81 -255 -8 -5 -18 -1 -27 10 -10 15 -13 71 -13 244
-1 371 -17 734 -38 837 -21 101 -54 177 -91 205 -93 73 -199 42 -467 -138
-141 -95 -273 -211 -513 -451 l-204 -204 -56 6 c-264 30 -566 34 -791 10
l-145 -15 -117 121 c-236 242 -438 421 -598 531 -93 63 -96 65 -190 112 -78
38 -92 42 -162 42 -76 0 -77 0 -118 -40 -22 -21 -40 -43 -40 -48 0 -4 -9 -28
-20 -52 -35 -77 -58 -337 -64 -730 -6 -346 -11 -425 -27 -425 -9 0 -32 48 -50
105 -6 22 -15 51 -20 65 -4 14 -13 50 -18 81 -23 130 -71 229 -111 229 -42 0
-80 -80 -99 -206 -5 -38 -14 -96 -20 -129 -5 -33 -20 -181 -32 -330 -12 -148
-26 -274 -30 -279 -6 -6 -9 -2 -9 10 -1 10 -5 78 -10 149 -5 72 -18 290 -29
485 -49 883 -59 994 -100 1147 -35 129 -182 150 -237 33 -25 -51 -56 -256 -74
-475 -6 -77 -16 -178 -21 -225 -5 -47 -20 -220 -34 -385 -13 -165 -30 -338
-37 -385 l-12 -85 -13 75 c-7 41 -20 147 -29 235 -8 88 -17 163 -20 166 -2 4
-11 59 -19 122 -17 130 -57 328 -81 400 -21 64 -68 117 -103 117 -32 0 -85
-31 -105 -62 -26 -40 -56 -170 -121 -523 -27 -145 -34 -181 -43 -210 l-9 -30
-13 30 c-6 17 -28 80 -47 140 -73 229 -131 310 -217 310 -56 0 -83 -23 -156
-132 -34 -51 -75 -102 -91 -113 -39 -28 -99 -36 -459 -60 -359 -24 -423 -30
-441 -41 -28 -17 7 -24 149 -31 81 -4 226 -12 322 -17 96 -6 235 -10 308 -10
127 -1 135 0 190 28 59 31 126 93 157 148 10 18 23 29 28 26 17 -10 107 -253
107 -289 0 -39 55 -172 83 -202 26 -27 38 -32 78 -32 61 0 102 32 123 98 17
52 47 198 76 369 11 62 26 141 34 175 8 35 17 80 21 101 13 83 26 41 60 -203
27 -196 66 -480 80 -595 33 -260 48 -312 101 -354 45 -35 125 -24 153 21 13
21 33 93 45 158 3 19 13 116 21 215 19 235 70 771 90 955 16 151 23 195 30
189 2 -3 8 -87 14 -189 6 -102 18 -284 26 -405 8 -121 22 -339 30 -485 8 -146
19 -303 25 -350 6 -47 17 -148 25 -224 8 -77 19 -154 24 -170 6 -17 14 -49 20
-71 23 -89 140 -102 191 -21 58 94 89 376 110 975 5 150 11 276 14 279 10 9
18 -6 32 -60 84 -333 102 -368 191 -368 41 0 70 19 98 62 29 47 64 214 80 388
8 91 20 201 25 245 5 44 15 134 20 200 11 118 23 184 41 217 8 14 14 15 42 6
42 -15 129 -70 192 -122 28 -23 76 -61 107 -84 76 -58 399 -372 393 -382 -3
-5 -24 -11 -48 -15 -43 -7 -249 -77 -322 -109 -88 -39 -287 -142 -313 -163
-21 -17 -24 -24 -15 -34 10 -10 18 -10 35 -1 64 31 176 68 448 146 224 64 337
89 538 117 139 19 186 20 495 16 276 -4 367 -9 472 -25 141 -22 341 -63 420
-86 28 -8 93 -27 145 -41 100 -28 354 -112 381 -125 8 -5 22 -4 30 1 22 15
-25 48 -175 122 -150 75 -367 156 -486 182 -16 4 -30 10 -30 14 0 15 181 199
294 300 199 178 336 281 419 316 l38 16 15 -38 c9 -20 25 -107 35 -193 10 -85
24 -186 30 -225 5 -38 16 -131 24 -205 15 -137 25 -207 52 -338 20 -99 59
-142 126 -142 40 0 51 5 81 35 39 38 74 136 102 281 30 160 37 126 59 -291 35
-678 38 -713 71 -763 8 -12 30 -30 48 -39 32 -15 36 -14 72 3 32 16 42 28 56
71 23 70 35 150 48 328 6 83 15 197 20 255 6 58 19 287 30 510 20 410 47 758
61 774 10 11 17 -57 34 -339 50 -823 80 -1149 117 -1260 34 -103 89 -141 155
-109 69 34 100 119 128 349 8 66 19 154 25 195 5 41 19 164 30 272 18 174 34
304 59 470 8 50 21 76 21 41 0 -12 11 -79 24 -149 14 -71 34 -185 46 -254 12
-69 25 -145 30 -170 5 -25 16 -78 25 -118 22 -110 39 -138 92 -158 44 -17 47
-17 82 2 57 31 94 100 122 232 5 26 14 63 19 82 5 19 16 63 25 98 8 34 26 85
38 113 l22 51 14 -28 c8 -16 17 -38 22 -49 40 -102 84 -181 121 -217 88 -88
172 -84 300 15 21 15 52 33 70 38 18 5 220 16 448 24 228 8 444 17 480 21 56
5 62 8 47 19 -11 8 -66 16 -140 20 -67 3 -196 12 -287 20 -326 27 -536 38
-581 31 -27 -4 -78 -26 -122 -52 -109 -65 -117 -58 -211 187 -45 118 -67 158
-101 179 -41 25 -71 25 -113 0 -56 -35 -91 -110 -162 -355 -22 -77 -42 -144
-44 -150 -7 -22 -26 67 -91 435 -29 165 -67 316 -94 368 -27 53 -80 79 -123
61 -47 -19 -75 -57 -92 -123 -45 -187 -57 -266 -96 -651 -18 -180 -41 -386
-56 -503 -3 -24 -7 -42 -9 -40 -8 8 -26 232 -35 438 -6 124 -15 268 -20 320
-5 52 -15 187 -20 300 -19 364 -57 656 -95 730 -29 57 -107 77 -167 44z"/>
</g>
</svg>
